<?xml version="1.0" encoding="utf-8"?>
<!-- Generator: Adobe Illustrator 16.0.3, SVG Export Plug-In . SVG Version: 6.00 Build 0)  -->
<!DOCTYPE svg PUBLIC "-//W3C//DTD SVG 1.1//EN" "http://www.w3.org/Graphics/SVG/1.1/DTD/svg11.dtd">
<svg version="1.1" id="Layer_1" xmlns="http://www.w3.org/2000/svg" xmlns:xlink="http://www.w3.org/1999/xlink" x="0px" y="0px"
	 width="247px" height="177.667px" viewBox="0 0 247 177.667" enable-background="new 0 0 247 177.667" xml:space="preserve">
<g>
	<path fill="#FFFFFF" d="M236.74,176.023H10.262c-4.943,0-8.953-4.006-8.953-8.949V10.595c0-4.944,4.01-8.951,8.953-8.951H236.74
		c4.943,0,8.951,4.007,8.951,8.951v156.479C245.691,172.018,241.684,176.023,236.74,176.023z"/>
	<path fill="#64C19B" d="M236.74,176.023H10.262c-4.943,0-8.953-4.006-8.953-8.949V10.595c0-4.944,4.01-8.951,8.953-8.951H236.74
		c4.943,0,8.951,4.007,8.951,8.951v156.479C245.691,172.018,241.684,176.023,236.74,176.023z"/>
	<path fill="#FFFFFF" d="M129.541,82.632h-4.35v-8.732c0-1.199,0.975-2.174,2.174-2.174l0,0c1.203,0,2.176,0.975,2.176,2.174V82.632
		z"/>
	<g>
		<path fill="#FFFFFF" d="M53.768,95.805h3.887v13.621h8.416v3.166H53.768V95.805z"/>
		<path fill="#FFFFFF" d="M68.254,95.805h3.885v16.787h-3.885V95.805z"/>
		<path fill="#FFFFFF" d="M87.26,96.547c1.094,0.494,1.939,1.199,2.529,2.109c0.592,0.912,0.887,1.992,0.887,3.238
			c0,1.232-0.295,2.309-0.887,3.227c-0.59,0.918-1.436,1.623-2.529,2.109c-1.096,0.488-2.387,0.732-3.873,0.732h-3.381v4.629h-3.887
			V95.805h7.268C84.873,95.805,86.164,96.051,87.26,96.547z M85.832,104.041c0.609-0.504,0.912-1.219,0.912-2.146
			c0-0.943-0.303-1.666-0.912-2.17c-0.607-0.504-1.494-0.756-2.662-0.756h-3.164v5.828h3.164
			C84.338,104.797,85.225,104.545,85.832,104.041z"/>
		<path fill="#FFFFFF" d="M93.436,95.805h3.885v16.787h-3.885V95.805z"/>
		<path fill="#FFFFFF" d="M101.301,95.805h7.625c1.824,0,3.436,0.348,4.834,1.043c1.398,0.693,2.486,1.674,3.262,2.938
			s1.164,2.734,1.164,4.412s-0.389,3.15-1.164,4.412c-0.775,1.264-1.863,2.242-3.262,2.939c-1.398,0.695-3.01,1.043-4.834,1.043
			h-7.625V95.805z M108.736,109.4c1.678,0,3.016-0.467,4.016-1.402c0.998-0.936,1.5-2.201,1.5-3.801s-0.502-2.865-1.5-3.801
			c-1-0.938-2.338-1.402-4.016-1.402h-3.549V109.4H108.736z"/>
		<path fill="#FFFFFF" d="M138.727,103.934h3.551v6.811c-0.912,0.688-1.969,1.215-3.166,1.584c-1.199,0.367-2.406,0.551-3.621,0.551
			c-1.742,0-3.309-0.371-4.701-1.115c-1.391-0.744-2.482-1.775-3.273-3.094s-1.186-2.811-1.186-4.473
			c0-1.664,0.395-3.154,1.186-4.473s1.891-2.35,3.297-3.094c1.408-0.744,2.99-1.115,4.75-1.115c1.471,0,2.805,0.248,4.004,0.744
			c1.201,0.496,2.207,1.215,3.023,2.158l-2.496,2.303c-1.197-1.264-2.645-1.896-4.34-1.896c-1.072,0-2.021,0.225-2.854,0.672
			c-0.83,0.449-1.479,1.08-1.943,1.896c-0.463,0.814-0.695,1.748-0.695,2.805c0,1.041,0.232,1.967,0.695,2.783
			c0.465,0.814,1.107,1.449,1.932,1.904c0.822,0.455,1.762,0.684,2.818,0.684c1.119,0,2.125-0.238,3.02-0.719V103.934z"/>
		<path fill="#FFFFFF" d="M158.873,109.473v3.119h-12.998V95.805h12.686v3.115h-8.826v3.646h7.795v3.021h-7.795v3.885H158.873z"/>
		<path fill="#FFFFFF" d="M177.363,95.805v16.787h-3.189l-8.369-10.193v10.193h-3.838V95.805h3.213l8.346,10.191V95.805H177.363z"/>
		<path fill="#FFFFFF" d="M181.344,95.805h3.885v16.787h-3.885V95.805z"/>
		<path fill="#FFFFFF" d="M202.209,109.473v3.119h-12.998V95.805h9.568c1.721,0,3.117,1.395,3.117,3.115l0,0h-8.824v3.646h7.793
			v3.021h-7.793v3.885H202.209z"/>
	</g>
	<path fill="#FFFFFF" d="M212.586,95.447h-23.375v3.428h23.375c4.912,0,8.896,4.178,8.896,9.328l0,0c0,5.152-3.984,9.33-8.896,9.33
		h-16.723v3.428h16.723c6.719,0,12.168-5.711,12.168-12.758l0,0C224.754,101.158,219.305,95.447,212.586,95.447z"/>
	<path fill="#FFFFFF" d="M39.514,82.042c-3.988-5.026-5.979-5.988-12.396-5.988h-6.17c0,0,0.162,3.054,3.465,3.409
		c0.105,0.011,0.207,0.032,0.305,0.061c6.492,1.078,9.127,7.445,12.75,13.197l11.674,19.871V95.275L39.514,82.042z"/>
	<path fill="#FFFFFF" d="M158.873,90.834c-5.982-7.581-17.846-12.748-31.516-12.748s-25.533,5.167-31.518,12.748H158.873z"/>
	<polygon fill="#FFFFFF" points="178.906,51.436 161.697,34.228 144.488,51.436 127.279,34.228 110.07,51.436 92.863,34.228 
		75.654,51.436 58.443,34.228 20.947,71.726 24.707,71.726 58.443,38.031 75.654,55.24 92.863,38.031 110.07,55.24 127.279,38.031 
		144.488,55.24 161.697,38.031 178.906,55.24 203.475,30.672 203.475,26.867 	"/>
	<polygon fill="#FFFFFF" points="209.568,31.931 178.906,62.592 161.697,45.384 144.488,62.592 127.279,45.384 110.07,62.592 
		92.863,45.384 75.654,62.592 58.443,45.384 32.102,71.726 35.863,71.726 58.443,49.188 75.654,66.396 92.863,49.188 110.07,66.396 
		127.279,49.188 144.488,66.396 161.697,49.188 178.906,66.396 212.996,32.306 	"/>
	<circle fill="#FFCE0C" cx="212.171" cy="26.708" r="12.583"/>
	<rect x="125.191" y="129.029" fill="#FFFFFF" width="4.35" height="30.867"/>
	<path fill="#FFFFFF" d="M52.58,117.502c9.059,19.898,35.551,31.617,73.615,31.617c0.393,0,0.779-0.01,1.17-0.012
		c0.391,0.002,0.777,0.012,1.17,0.012c38.064,0,64.559-11.719,73.617-31.617H52.58z"/>
	<path fill="#FFFFFF" d="M106.455,160.953L106.455,160.953c0-2.414,1.957-4.371,4.371-4.371h33.25c2.414,0,4.369,1.957,4.369,4.371
		l0,0H106.455z"/>
	<g>
		<defs>
			<path id="SVGID_1_" d="M52.58,117.502c9.059,19.898,35.551,31.617,73.615,31.617c0.393,0,0.779-0.01,1.17-0.012
				c0.391,0.002,0.777,0.012,1.17,0.012c38.064,0,64.559-11.719,73.617-31.617H52.58z"/>
		</defs>
		<clipPath id="SVGID_2_">
			<use xlink:href="#SVGID_1_"  overflow="visible"/>
		</clipPath>
		<g clip-path="url(#SVGID_2_)">
			<path fill="#64C19B" d="M134.797,131.057c-0.641,0.922-1.008,1.646-1.066,1.768c-0.111,0.211-2.041,3.801-5.695,4.182v-9.277
				c0.754,0.09,1.436,0.311,2.045,0.615v5.275c0,0.195,0.078,0.373,0.207,0.5c0.127,0.129,0.303,0.207,0.5,0.207
				c0.391,0.002,0.707-0.316,0.709-0.707v-4.342c0.592,0.492,1.08,1.039,1.471,1.551c0.236,0.307,0.684,0.371,0.992,0.133
				c0.313-0.236,0.373-0.682,0.135-0.992c-0.58-0.762-1.541-1.811-2.861-2.598c-0.061-0.049-0.129-0.09-0.203-0.115
				c-1.027-0.576-2.26-0.986-3.697-0.99h-0.002c0,0,0,0-0.002,0l0,0c-4.256-0.012-6.732,3.521-7.414,4.648v2.752
				c0.643-0.924,1.008-1.648,1.068-1.77c0.107-0.207,2.02-3.766,5.639-4.176l-0.002,9.266c-0.74-0.094-1.41-0.316-2.01-0.619v-5.297
				c0-0.389-0.316-0.707-0.707-0.707c-0.393,0-0.709,0.316-0.709,0.707v4.355c-0.578-0.488-1.063-1.027-1.449-1.533
				c-0.234-0.309-0.68-0.371-0.992-0.133c-0.311,0.236-0.369,0.682-0.133,0.992c0.256,0.336,0.582,0.725,0.982,1.125
				c1.229,1.229,3.139,2.541,5.697,2.576c0.01,0,0.02,0.002,0.027,0.002c0.006,0,0.01,0,0.016,0c0.014,0,0.025,0,0.041,0
				c4.258,0.016,6.73-3.518,7.414-4.648V131.057z"/>
			<path fill="#64C19B" d="M119.914,130.918c-0.641,0.922-1.006,1.65-1.066,1.77c-0.109,0.211-2.041,3.801-5.695,4.182l0.002-9.275
				c0.752,0.09,1.434,0.307,2.045,0.613l-0.004,5.273c0,0.197,0.082,0.375,0.209,0.502c0.127,0.129,0.305,0.207,0.5,0.207
				c0.391,0,0.709-0.318,0.709-0.709v-4.338c0.592,0.492,1.082,1.037,1.473,1.549c0.234,0.309,0.682,0.371,0.992,0.135
				c0.311-0.238,0.371-0.684,0.135-0.994c-0.582-0.762-1.541-1.811-2.863-2.598c-0.061-0.049-0.127-0.09-0.203-0.115
				c-1.027-0.576-2.26-0.986-3.697-0.99c-0.002,0-0.002,0-0.002,0l0,0c0,0,0,0-0.002,0c-4.256-0.012-6.732,3.521-7.412,4.648v2.752
				c0.641-0.922,1.008-1.648,1.066-1.77c0.109-0.207,2.02-3.764,5.639-4.176l-0.002,9.266c-0.738-0.096-1.408-0.316-2.01-0.619
				l0.002-5.297c0-0.389-0.318-0.707-0.709-0.707s-0.709,0.316-0.709,0.707v4.354c-0.58-0.486-1.063-1.023-1.447-1.529
				c-0.236-0.309-0.682-0.371-0.992-0.135c-0.311,0.238-0.371,0.682-0.135,0.992c0.256,0.336,0.584,0.725,0.982,1.125
				c1.23,1.229,3.139,2.539,5.697,2.576c0.01,0,0.02,0.002,0.029,0.002c0.006,0,0.01,0,0.014,0c0.014,0,0.027,0,0.041,0
				c4.258,0.016,6.732-3.518,7.414-4.646V130.918z"/>
			<path fill="#64C19B" d="M149.678,131.193c-0.641,0.922-1.006,1.646-1.066,1.768c-0.109,0.211-2.039,3.801-5.693,4.182
				l0.002-9.275c0.75,0.088,1.434,0.309,2.041,0.613v5.275c0,0.195,0.078,0.371,0.207,0.5c0.129,0.127,0.307,0.207,0.5,0.207
				c0.393,0,0.709-0.316,0.709-0.707l0.002-4.342c0.59,0.492,1.08,1.039,1.471,1.551c0.236,0.309,0.682,0.371,0.992,0.135
				c0.313-0.238,0.373-0.684,0.135-0.992c-0.58-0.764-1.541-1.813-2.863-2.6c-0.061-0.049-0.129-0.088-0.203-0.115
				c-1.025-0.576-2.258-0.986-3.697-0.99c0,0,0,0-0.002,0l0,0l0,0c-4.256-0.012-6.732,3.521-7.414,4.646v2.754
				c0.643-0.924,1.008-1.646,1.068-1.77c0.107-0.207,2.02-3.766,5.639-4.176l-0.002,9.266c-0.74-0.096-1.41-0.316-2.012-0.619
				v-5.297c0-0.389-0.316-0.707-0.705-0.707c-0.393,0-0.711,0.316-0.709,0.707v4.354c-0.58-0.486-1.064-1.025-1.449-1.531
				c-0.236-0.309-0.68-0.369-0.992-0.133c-0.311,0.238-0.371,0.682-0.133,0.992c0.254,0.334,0.582,0.725,0.982,1.125
				c1.229,1.229,3.137,2.539,5.695,2.576c0.01,0,0.02,0.004,0.029,0.004c0.006,0,0.01-0.002,0.016-0.002
				c0.012,0,0.027,0.002,0.041,0.002c4.256,0.012,6.73-3.52,7.412-4.648V131.193z"/>
			<path fill="#64C19B" d="M105.033,130.783c-0.643,0.922-1.01,1.648-1.066,1.768c-0.111,0.211-2.041,3.801-5.697,4.182l0.002-9.275
				c0.752,0.088,1.434,0.309,2.043,0.613v5.275c0,0.195,0.08,0.371,0.207,0.5c0.129,0.127,0.307,0.207,0.502,0.207
				c0.391,0,0.707-0.316,0.707-0.707l0.002-4.342c0.59,0.492,1.082,1.039,1.471,1.551c0.234,0.309,0.682,0.371,0.992,0.133
				c0.313-0.234,0.371-0.68,0.135-0.99c-0.582-0.764-1.539-1.814-2.863-2.6c-0.061-0.049-0.127-0.088-0.203-0.117
				c-1.027-0.574-2.26-0.984-3.697-0.988c0,0,0,0-0.002,0l0,0l0,0c-4.258-0.012-6.732,3.521-7.414,4.648v2.752
				c0.643-0.924,1.008-1.646,1.068-1.77c0.107-0.207,2.018-3.766,5.637-4.176l-0.002,9.266c-0.738-0.096-1.408-0.316-2.01-0.619
				v-5.295c0-0.391-0.316-0.709-0.707-0.709s-0.707,0.316-0.707,0.709v4.354c-0.58-0.488-1.063-1.025-1.449-1.531
				c-0.236-0.311-0.68-0.371-0.992-0.135c-0.311,0.238-0.371,0.682-0.133,0.992c0.254,0.336,0.582,0.725,0.98,1.125
				c1.23,1.229,3.139,2.541,5.697,2.576c0.01,0,0.021,0.004,0.029,0.004c0.006,0,0.01-0.002,0.016-0.002
				c0.014,0,0.025,0.002,0.041,0.002c4.254,0.012,6.73-3.52,7.414-4.648V130.783z"/>
			<path fill="#64C19B" d="M90.15,130.596c-0.643,0.922-1.008,1.648-1.066,1.768c-0.111,0.213-2.041,3.803-5.695,4.184l0.002-9.277
				c0.752,0.09,1.434,0.311,2.043,0.613l-0.002,5.275c0,0.195,0.08,0.373,0.207,0.502c0.129,0.127,0.309,0.207,0.502,0.207
				c0.391,0,0.709-0.316,0.709-0.709l0.002-4.34c0.588,0.492,1.08,1.039,1.469,1.551c0.236,0.309,0.684,0.371,0.994,0.133
				c0.311-0.236,0.369-0.682,0.133-0.992c-0.58-0.764-1.539-1.813-2.861-2.6c-0.061-0.049-0.131-0.088-0.203-0.115
				c-1.027-0.574-2.26-0.984-3.699-0.988h-0.002l0,0l0,0c-4.256-0.014-6.73,3.52-7.412,4.648v2.752
				c0.641-0.924,1.006-1.648,1.066-1.77c0.107-0.207,2.018-3.766,5.639-4.178l-0.002,9.268c-0.738-0.098-1.408-0.318-2.01-0.621
				v-5.295c0-0.391-0.318-0.707-0.707-0.707c-0.391,0-0.709,0.316-0.709,0.707v4.354c-0.58-0.486-1.063-1.025-1.449-1.531
				c-0.234-0.309-0.68-0.371-0.99-0.135c-0.313,0.238-0.371,0.684-0.135,0.994c0.256,0.336,0.584,0.725,0.982,1.125
				c1.229,1.229,3.139,2.539,5.697,2.576c0.01,0,0.02,0.004,0.027,0.002c0.006,0,0.012-0.002,0.016-0.002
				c0.014,0,0.025,0.002,0.041,0.002c4.256,0.014,6.73-3.518,7.414-4.648V130.596z"/>
			<path fill="#64C19B" d="M75.27,130.447c-0.643,0.922-1.008,1.648-1.068,1.77c-0.111,0.209-2.041,3.801-5.695,4.182l0.002-9.277
				c0.754,0.09,1.434,0.309,2.045,0.613l-0.002,5.275c0,0.197,0.078,0.375,0.207,0.502c0.127,0.127,0.307,0.205,0.5,0.205
				c0.391,0.002,0.707-0.316,0.707-0.707l0.004-4.34c0.59,0.492,1.08,1.037,1.471,1.551c0.234,0.307,0.682,0.369,0.992,0.133
				s0.371-0.682,0.135-0.992c-0.582-0.762-1.541-1.811-2.863-2.6c-0.061-0.049-0.129-0.088-0.203-0.115
				c-1.027-0.574-2.26-0.984-3.697-0.988h-0.002l0,0c0,0,0,0-0.002,0c-4.256-0.014-6.732,3.521-7.412,4.648v2.752
				c0.641-0.924,1.008-1.648,1.066-1.771c0.107-0.207,2.02-3.762,5.639-4.174l-0.002,9.266c-0.738-0.096-1.408-0.318-2.01-0.621
				l0.002-5.295c0-0.391-0.318-0.707-0.709-0.707s-0.709,0.316-0.709,0.707v4.354c-0.578-0.486-1.063-1.025-1.447-1.531
				c-0.236-0.309-0.682-0.371-0.992-0.135c-0.311,0.238-0.371,0.684-0.135,0.994c0.256,0.334,0.582,0.725,0.982,1.123
				c1.229,1.229,3.139,2.539,5.697,2.578c0.01,0,0.02,0.002,0.029,0.002c0.004,0,0.01-0.002,0.014-0.002
				c0.014,0,0.027,0.002,0.041,0.002c4.258,0.014,6.732-3.518,7.416-4.646V130.447z"/>
			<path fill="#FFCE0C" d="M60.387,130.303c-0.643,0.924-1.008,1.648-1.068,1.77c-0.109,0.211-2.039,3.801-5.695,4.182l0.002-9.277
				c0.754,0.088,1.434,0.311,2.045,0.613l-0.002,5.275c0,0.195,0.078,0.373,0.207,0.502c0.127,0.129,0.305,0.207,0.5,0.207
				c0.393,0,0.709-0.316,0.709-0.709v-4.34c0.592,0.492,1.084,1.037,1.473,1.549c0.236,0.309,0.682,0.371,0.992,0.135
				c0.313-0.236,0.371-0.68,0.135-0.992c-0.58-0.762-1.539-1.813-2.863-2.598c-0.061-0.051-0.129-0.088-0.201-0.117
				c-1.029-0.572-2.26-0.984-3.699-0.988c0,0,0,0-0.002,0l0,0l0,0c-4.258-0.012-6.732,3.52-7.414,4.646v2.754
				c0.641-0.924,1.008-1.648,1.066-1.77c0.109-0.209,2.021-3.766,5.639-4.176v9.266c-0.74-0.096-1.41-0.318-2.01-0.621v-5.295
				c0-0.391-0.316-0.707-0.709-0.707c-0.391,0-0.707,0.316-0.707,0.707v4.354c-0.58-0.486-1.064-1.025-1.447-1.529
				c-0.236-0.311-0.682-0.373-0.994-0.135c-0.311,0.236-0.371,0.68-0.135,0.992c0.256,0.336,0.584,0.725,0.984,1.125
				c1.229,1.229,3.137,2.539,5.697,2.576c0.008,0,0.018,0.002,0.027,0.002c0.006,0,0.008-0.002,0.016-0.002
				c0.012,0,0.027,0.002,0.039,0.002c4.258,0.014,6.732-3.518,7.416-4.646V130.303z"/>
			<path fill="#64C19B" d="M164.563,131.328c-0.643,0.924-1.008,1.648-1.068,1.77c-0.109,0.211-2.041,3.801-5.695,4.182l0.002-9.277
				c0.752,0.09,1.434,0.309,2.045,0.615l-0.002,5.273c0,0.197,0.08,0.375,0.207,0.502c0.127,0.129,0.305,0.207,0.5,0.207
				c0.393,0,0.709-0.316,0.709-0.709v-4.34c0.592,0.492,1.084,1.039,1.473,1.551c0.234,0.307,0.682,0.371,0.992,0.135
				c0.311-0.238,0.371-0.682,0.135-0.994c-0.582-0.764-1.541-1.811-2.863-2.598c-0.061-0.049-0.129-0.09-0.203-0.115
				c-1.027-0.576-2.26-0.986-3.697-0.99c0,0,0,0-0.002,0l0,0c-0.002,0-0.002,0-0.002,0c-4.256-0.012-6.732,3.52-7.414,4.648v2.752
				c0.643-0.922,1.008-1.648,1.068-1.77c0.109-0.207,2.02-3.764,5.639-4.176l-0.002,9.266c-0.74-0.096-1.408-0.316-2.01-0.619
				v-5.295c0.002-0.393-0.316-0.709-0.707-0.709s-0.707,0.316-0.707,0.709v4.352c-0.58-0.484-1.064-1.025-1.447-1.531
				c-0.238-0.309-0.684-0.369-0.994-0.133c-0.311,0.238-0.371,0.682-0.135,0.992c0.256,0.336,0.584,0.725,0.982,1.123
				c1.23,1.23,3.139,2.541,5.697,2.578c0.01,0,0.02,0.002,0.029,0.002c0.006,0,0.01,0,0.014,0c0.014,0,0.027,0,0.041,0
				c4.258,0.014,6.732-3.516,7.416-4.646V131.328z"/>
			<path fill="#64C19B" d="M179.443,131.441c-0.641,0.922-1.008,1.646-1.066,1.768c-0.111,0.211-2.041,3.801-5.695,4.182
				l0.002-9.275c0.752,0.088,1.432,0.309,2.043,0.613v5.275c0,0.195,0.078,0.373,0.207,0.5c0.127,0.127,0.305,0.207,0.5,0.207
				c0.391,0,0.707-0.316,0.707-0.707l0.002-4.342c0.59,0.492,1.082,1.039,1.471,1.551c0.236,0.309,0.682,0.371,0.994,0.133
				c0.311-0.236,0.369-0.68,0.133-0.992c-0.582-0.762-1.539-1.811-2.861-2.598c-0.061-0.049-0.129-0.09-0.203-0.117
				c-1.027-0.574-2.26-0.984-3.697-0.988c0,0-0.002,0-0.004,0l0,0l0,0c-4.258-0.012-6.732,3.521-7.412,4.648v2.752
				c0.639-0.924,1.006-1.648,1.066-1.768c0.107-0.209,2.018-3.768,5.637-4.178v9.266c-0.738-0.096-1.408-0.316-2.01-0.619v-5.297
				c0-0.389-0.318-0.707-0.709-0.707c-0.389,0-0.707,0.316-0.707,0.707v4.354c-0.58-0.486-1.064-1.023-1.447-1.531
				c-0.236-0.309-0.682-0.371-0.992-0.133c-0.313,0.236-0.373,0.682-0.135,0.992c0.254,0.336,0.582,0.725,0.98,1.125
				c1.23,1.229,3.141,2.539,5.697,2.576c0.01,0,0.02,0.004,0.031,0.002c0.004,0,0.008,0,0.012,0c0.016,0,0.027,0,0.041,0
				c4.258,0.014,6.732-3.518,7.416-4.648V131.441z"/>
			<path fill="#64C19B" d="M194.324,131.58c-0.641,0.924-1.006,1.648-1.066,1.768c-0.109,0.213-2.039,3.803-5.693,4.182v-9.275
				c0.754,0.09,1.436,0.311,2.045,0.613l-0.002,5.275c0,0.195,0.078,0.373,0.207,0.5c0.129,0.129,0.307,0.209,0.502,0.209
				c0.391,0,0.707-0.316,0.707-0.709l0.002-4.34c0.59,0.492,1.08,1.039,1.471,1.551c0.236,0.309,0.682,0.371,0.992,0.133
				c0.311-0.236,0.371-0.68,0.135-0.992c-0.582-0.764-1.539-1.813-2.863-2.598c-0.061-0.049-0.129-0.09-0.201-0.117
				c-1.029-0.574-2.26-0.984-3.699-0.988c0,0,0,0-0.002,0l0,0l0,0c-4.256-0.012-6.732,3.521-7.414,4.648v2.75
				c0.641-0.922,1.008-1.645,1.066-1.768c0.109-0.209,2.021-3.766,5.641-4.178l-0.002,9.266c-0.738-0.094-1.41-0.316-2.01-0.617
				v-5.295c0-0.393-0.318-0.709-0.709-0.709s-0.709,0.316-0.709,0.709v4.352c-0.58-0.486-1.061-1.025-1.447-1.531
				c-0.236-0.309-0.68-0.371-0.992-0.133c-0.313,0.236-0.371,0.682-0.135,0.992c0.256,0.334,0.584,0.723,0.984,1.125
				c1.229,1.229,3.137,2.541,5.697,2.576c0.008,0,0.018,0.004,0.027,0.002c0.004,0,0.008-0.002,0.014-0.002
				c0.014,0,0.027,0.002,0.043,0.002c4.256,0.014,6.73-3.518,7.412-4.646V131.58z"/>
			<path fill="#FFCE0C" d="M209.207,131.721c-0.641,0.922-1.008,1.648-1.066,1.768c-0.111,0.213-2.041,3.801-5.695,4.184
				l0.002-9.277c0.752,0.09,1.434,0.309,2.045,0.613l-0.002,5.275c0,0.195,0.078,0.373,0.207,0.502
				c0.127,0.127,0.305,0.207,0.5,0.207c0.391,0,0.709-0.316,0.709-0.709v-4.34c0.592,0.492,1.082,1.037,1.473,1.549
				c0.234,0.309,0.682,0.371,0.992,0.135s0.371-0.68,0.133-0.994c-0.58-0.762-1.539-1.811-2.861-2.598
				c-0.061-0.049-0.129-0.09-0.203-0.115c-1.027-0.574-2.26-0.986-3.697-0.99c-0.002,0-0.002,0-0.002,0l0,0
				c-0.002,0-0.002,0-0.002,0c-4.256-0.01-6.732,3.523-7.414,4.65v2.752c0.645-0.924,1.01-1.648,1.066-1.77
				c0.111-0.209,2.021-3.766,5.641-4.176l-0.002,9.264c-0.738-0.094-1.41-0.316-2.01-0.619v-5.295c0-0.391-0.316-0.707-0.707-0.707
				s-0.709,0.316-0.709,0.707v4.352c-0.578-0.484-1.063-1.023-1.447-1.529c-0.236-0.309-0.682-0.371-0.992-0.135
				c-0.311,0.238-0.371,0.684-0.135,0.994c0.256,0.334,0.584,0.725,0.982,1.123c1.229,1.23,3.139,2.541,5.697,2.576
				c0.01,0,0.02,0.004,0.029,0.002c0.004,0,0.008,0,0.014,0c0.014,0,0.027,0,0.041,0c4.256,0.016,6.732-3.516,7.414-4.646V131.721z"
				/>
		</g>
	</g>
</g>
</svg>
